
    <svg fill="none" viewBox="0 0 800 200" width="800" height="200" xmlns="http://www.w3.org/2000/svg">
      <style>
        .text { font-family: -apple-system, BlinkMacSystemFont, 'Segoe UI', Helvetica, Arial, sans-serif; font-size: 12px; fill: #f8f8f2; }
        .title { font-family: -apple-system, BlinkMacSystemFont, 'Segoe UI', Helvetica, Arial, sans-serif; font-size: 18px; font-weight: bold; fill: #ff79c6; }
        .axis-text { font-family: -apple-system, BlinkMacSystemFont, 'Segoe UI', Helvetica, Arial, sans-serif; font-size: 10px; fill: #6272a4; }
        
        @keyframes drawCycle_a792643c {
            0% { stroke-dashoffset: 3000; opacity: 1; }
            40% { stroke-dashoffset: 0; opacity: 1; }
            85% { stroke-dashoffset: 0; opacity: 1; }
            95% { stroke-dashoffset: 0; opacity: 0; }
            100% { stroke-dashoffset: 3000; opacity: 0; }
        }

        @keyframes fillCycle_a792643c {
            0% { opacity: 0; }
            35% { opacity: 0; }
            50% { opacity: 1; }
            85% { opacity: 1; }
            100% { opacity: 0; }
        }

        @keyframes pointCycle_a792643c {
            0% { r: 0; opacity: 0; }
            35% { r: 0; opacity: 0; }
            45% { r: 4; opacity: 1; }
            85% { r: 4; opacity: 1; }
            100% { r: 0; opacity: 0; }
        }

        .line-path {
            stroke-dasharray: 3000;
            stroke-dashoffset: 3000;
            animation: drawCycle_a792643c 15s cubic-bezier(0.22, 1, 0.36, 1) infinite;
        }
        
        .area-fill {
            opacity: 0;
            animation: fillCycle_a792643c 15s ease-in-out infinite;
        }
        
        .visible-point {
            fill: #44475a;
            stroke: #bd93f9;
            stroke-width: 2;
            opacity: 0;
            animation: pointCycle_a792643c 15s ease-in-out infinite;
        }
      </style>

      <rect x="0" y="0" width="800" height="200" rx="10" ry="10" fill="#44475a" stroke="#ff79c6" stroke-width="1" stroke-opacity="0.3" />
      
      <text x="40" y="25" class="title">Contribution Activity</text>
      <text x="760" y="25" class="text" text-anchor="end">Last 30 Days</text>
      
      <defs>
        <linearGradient id="grad_a792643c" x1="0%" y1="0%" x2="0%" y2="100%">
          <stop offset="0%" style="stop-color:#ff79c6;stop-opacity:0.5" />
          <stop offset="100%" style="stop-color:#ff79c6;stop-opacity:0.0" />
        </linearGradient>
      </defs>

      <path d="M 40.0,160.0 C 52.41379310344828,160.0 52.41379310344828,74.28571428571428 64.82758620689656,74.28571428571428 C 77.24137931034483,74.28571428571428 77.24137931034483,149.71428571428572 89.65517241379311,149.71428571428572 C 102.06896551724138,149.71428571428572 102.06896551724138,153.14285714285714 114.48275862068965,153.14285714285714 C 126.89655172413794,153.14285714285714 126.89655172413794,160.0 139.31034482758622,160.0 C 151.72413793103448,160.0 151.72413793103448,160.0 164.13793103448276,160.0 C 176.55172413793105,160.0 176.55172413793105,160.0 188.9655172413793,160.0 C 201.3793103448276,160.0 201.3793103448276,160.0 213.79310344827587,160.0 C 226.20689655172413,160.0 226.20689655172413,156.57142857142858 238.6206896551724,156.57142857142858 C 251.0344827586207,156.57142857142858 251.0344827586207,40.0 263.44827586206895,40.0 C 275.8620689655172,40.0 275.8620689655172,57.14285714285715 288.2758620689655,57.14285714285715 C 300.68965517241384,57.14285714285715 300.68965517241384,153.14285714285714 313.1034482758621,153.14285714285714 C 325.51724137931035,153.14285714285714 325.51724137931035,160.0 337.9310344827586,160.0 C 350.34482758620686,160.0 350.34482758620686,156.57142857142858 362.7586206896552,156.57142857142858 C 375.1724137931035,156.57142857142858 375.1724137931035,156.57142857142858 387.58620689655174,156.57142857142858 C 400.0,156.57142857142858 400.0,136.0 412.41379310344826,136.0 C 424.8275862068965,136.0 424.8275862068965,153.14285714285714 437.2413793103448,153.14285714285714 C 449.65517241379314,153.14285714285714 449.65517241379314,136.0 462.0689655172414,136.0 C 474.48275862068965,136.0 474.48275862068965,153.14285714285714 486.8965517241379,153.14285714285714 C 499.31034482758616,153.14285714285714 499.31034482758616,156.57142857142858 511.7241379310345,156.57142857142858 C 524.1379310344828,156.57142857142858 524.1379310344828,156.57142857142858 536.551724137931,156.57142857142858 C 548.9655172413793,156.57142857142858 548.9655172413793,153.14285714285714 561.3793103448276,153.14285714285714 C 573.7931034482758,153.14285714285714 573.7931034482758,77.71428571428571 586.2068965517242,77.71428571428571 C 598.6206896551724,77.71428571428571 598.6206896551724,108.57142857142858 611.0344827586207,108.57142857142858 C 623.448275862069,108.57142857142858 623.448275862069,108.57142857142858 635.8620689655172,108.57142857142858 C 648.2758620689656,108.57142857142858 648.2758620689656,115.42857142857143 660.6896551724138,115.42857142857143 C 673.1034482758621,115.42857142857143 673.1034482758621,98.28571428571429 685.5172413793103,98.28571428571429 C 697.9310344827586,98.28571428571429 697.9310344827586,153.14285714285714 710.3448275862069,153.14285714285714 C 722.7586206896551,153.14285714285714 722.7586206896551,156.57142857142858 735.1724137931035,156.57142857142858 C 747.5862068965517,156.57142857142858 747.5862068965517,149.71428571428572 760.0,149.71428571428572 L 760.0,160 L 40.0,160 Z" fill="url(#grad_a792643c)" class="area-fill" />
      <path d="M 40.0,160.0 C 52.41379310344828,160.0 52.41379310344828,74.28571428571428 64.82758620689656,74.28571428571428 C 77.24137931034483,74.28571428571428 77.24137931034483,149.71428571428572 89.65517241379311,149.71428571428572 C 102.06896551724138,149.71428571428572 102.06896551724138,153.14285714285714 114.48275862068965,153.14285714285714 C 126.89655172413794,153.14285714285714 126.89655172413794,160.0 139.31034482758622,160.0 C 151.72413793103448,160.0 151.72413793103448,160.0 164.13793103448276,160.0 C 176.55172413793105,160.0 176.55172413793105,160.0 188.9655172413793,160.0 C 201.3793103448276,160.0 201.3793103448276,160.0 213.79310344827587,160.0 C 226.20689655172413,160.0 226.20689655172413,156.57142857142858 238.6206896551724,156.57142857142858 C 251.0344827586207,156.57142857142858 251.0344827586207,40.0 263.44827586206895,40.0 C 275.8620689655172,40.0 275.8620689655172,57.14285714285715 288.2758620689655,57.14285714285715 C 300.68965517241384,57.14285714285715 300.68965517241384,153.14285714285714 313.1034482758621,153.14285714285714 C 325.51724137931035,153.14285714285714 325.51724137931035,160.0 337.9310344827586,160.0 C 350.34482758620686,160.0 350.34482758620686,156.57142857142858 362.7586206896552,156.57142857142858 C 375.1724137931035,156.57142857142858 375.1724137931035,156.57142857142858 387.58620689655174,156.57142857142858 C 400.0,156.57142857142858 400.0,136.0 412.41379310344826,136.0 C 424.8275862068965,136.0 424.8275862068965,153.14285714285714 437.2413793103448,153.14285714285714 C 449.65517241379314,153.14285714285714 449.65517241379314,136.0 462.0689655172414,136.0 C 474.48275862068965,136.0 474.48275862068965,153.14285714285714 486.8965517241379,153.14285714285714 C 499.31034482758616,153.14285714285714 499.31034482758616,156.57142857142858 511.7241379310345,156.57142857142858 C 524.1379310344828,156.57142857142858 524.1379310344828,156.57142857142858 536.551724137931,156.57142857142858 C 548.9655172413793,156.57142857142858 548.9655172413793,153.14285714285714 561.3793103448276,153.14285714285714 C 573.7931034482758,153.14285714285714 573.7931034482758,77.71428571428571 586.2068965517242,77.71428571428571 C 598.6206896551724,77.71428571428571 598.6206896551724,108.57142857142858 611.0344827586207,108.57142857142858 C 623.448275862069,108.57142857142858 623.448275862069,108.57142857142858 635.8620689655172,108.57142857142858 C 648.2758620689656,108.57142857142858 648.2758620689656,115.42857142857143 660.6896551724138,115.42857142857143 C 673.1034482758621,115.42857142857143 673.1034482758621,98.28571428571429 685.5172413793103,98.28571428571429 C 697.9310344827586,98.28571428571429 697.9310344827586,153.14285714285714 710.3448275862069,153.14285714285714 C 722.7586206896551,153.14285714285714 722.7586206896551,156.57142857142858 735.1724137931035,156.57142857142858 C 747.5862068965517,156.57142857142858 747.5862068965517,149.71428571428572 760.0,149.71428571428572" fill="none" stroke="#ff79c6" stroke-width="3" stroke-linecap="round" stroke-linejoin="round" class="line-path" />
      
      <text x="40.0" y="185" class="axis-text" text-anchor="middle">12-13</text><text x="164.13793103448276" y="185" class="axis-text" text-anchor="middle">12-18</text><text x="288.2758620689655" y="185" class="axis-text" text-anchor="middle">12-23</text><text x="412.41379310344826" y="185" class="axis-text" text-anchor="middle">12-28</text><text x="536.551724137931" y="185" class="axis-text" text-anchor="middle">01-02</text><text x="660.6896551724138" y="185" class="axis-text" text-anchor="middle">01-07</text>
      <circle cx="64.83" cy="74.29" r="3" class="visible-point" /><circle cx="89.66" cy="149.71" r="3" class="visible-point" /><circle cx="114.48" cy="153.14" r="3" class="visible-point" /><circle cx="238.62" cy="156.57" r="3" class="visible-point" /><circle cx="263.45" cy="40.00" r="3" class="visible-point" /><circle cx="288.28" cy="57.14" r="3" class="visible-point" /><circle cx="313.10" cy="153.14" r="3" class="visible-point" /><circle cx="362.76" cy="156.57" r="3" class="visible-point" /><circle cx="387.59" cy="156.57" r="3" class="visible-point" /><circle cx="412.41" cy="136.00" r="3" class="visible-point" /><circle cx="437.24" cy="153.14" r="3" class="visible-point" /><circle cx="462.07" cy="136.00" r="3" class="visible-point" /><circle cx="486.90" cy="153.14" r="3" class="visible-point" /><circle cx="511.72" cy="156.57" r="3" class="visible-point" /><circle cx="536.55" cy="156.57" r="3" class="visible-point" /><circle cx="561.38" cy="153.14" r="3" class="visible-point" /><circle cx="586.21" cy="77.71" r="3" class="visible-point" /><circle cx="611.03" cy="108.57" r="3" class="visible-point" /><circle cx="635.86" cy="108.57" r="3" class="visible-point" /><circle cx="660.69" cy="115.43" r="3" class="visible-point" /><circle cx="685.52" cy="98.29" r="3" class="visible-point" /><circle cx="710.34" cy="153.14" r="3" class="visible-point" /><circle cx="735.17" cy="156.57" r="3" class="visible-point" /><circle cx="760.00" cy="149.71" r="3" class="visible-point" />
    </svg>
    